<svg width="34" height="29" viewBox="0 0 34 29" fill="none" xmlns="http://www.w3.org/2000/svg">
<rect width="34" height="29" fill="#F5F5F5"/>
<g clip-path="url(#clip0_1_3)">
<rect width="34" height="29" fill="white"/>
<path d="M4.82263 24.1734V4.57336H6.53063L20.0546 21.5974H19.1586V4.57336H21.2026V24.1734H19.4946L5.99863 7.14936H6.89463V24.1734H4.82263Z" fill="black"/>
<path d="M19.1526 0.339508H33.8011V2.23668V29H32.6627C32.6627 29 21.181 29 24.2181 29C26.0747 29 27.5605 27 31.5242 27V2.23668H21.2015V5.37375L19.1526 5.40324V2.23668H2.18315V27C2.18315 27 10.6047 27.068 14.1047 27.068C15.6047 27.068 18.8574 29 20.2654 29C20.7654 29 0 29 0 29V0.339508H19.1526Z" fill="black"/>
<rect x="21.2005" y="0.332031" width="1.18213" height="1.90791" fill="white"/>
<path d="M18.0472 27.8573L18.0472 27.8574L18.0518 27.8592C19.3143 28.3618 20.6849 28.6109 22.1596 28.6109C23.5994 28.6109 24.9517 28.3613 26.213 27.8592C27.4802 27.3547 28.5538 26.6051 29.4279 25.6108L29.6572 25.3501L29.4148 25.1015L28.1371 23.7907L27.8655 23.512L27.5971 23.7938C26.8509 24.577 26.0345 25.1389 25.1483 25.4885C24.2528 25.8419 23.2849 26.0202 22.2412 26.0202C21.144 26.0202 20.1323 25.8329 19.2022 25.4623C18.269 25.0718 17.46 24.5326 16.7719 23.8447C16.0811 23.1357 15.5368 22.3208 15.1383 21.3977C14.7605 20.4624 14.5692 19.4336 14.5692 18.3071C14.5692 17.1795 14.7608 16.1602 15.1383 15.2443C15.5371 14.302 16.0812 13.4881 16.7702 12.799L16.7702 12.799L16.7735 12.7956C17.4613 12.09 18.2688 11.5522 19.1994 11.1809L19.1994 11.1809L19.205 11.1786C20.1345 10.7901 21.1452 10.594 22.2412 10.594C23.2849 10.594 24.2528 10.7723 25.1483 11.1256L25.1483 11.1257L25.1543 11.1279C26.0376 11.459 26.852 12.0103 27.5971 12.7925L27.8655 13.0743L28.1371 12.7956L29.4148 11.4848L29.6572 11.2362L29.4279 10.9754C28.5534 9.98072 27.479 9.23998 26.2107 8.75407C24.9506 8.25275 23.6082 8.00325 22.1868 8.00325C20.7112 8.00325 19.3397 8.26199 18.0767 8.78378C16.8182 9.28515 15.7161 9.99996 14.7738 10.928L14.7738 10.9279L14.7711 10.9306C13.8476 11.8588 13.1233 12.9503 12.5979 14.2015L12.5979 14.2015L12.5961 14.206C12.0869 15.4634 11.8347 16.8319 11.8347 18.3071C11.8347 19.7823 12.0869 21.1507 12.5961 22.4082L12.5961 22.4082L12.5979 22.4126C13.1233 23.6639 13.8476 24.7554 14.7711 25.6835C15.6957 26.6127 16.7891 27.3372 18.0472 27.8573Z" fill="black" stroke="white" stroke-width="0.75"/>
<path d="M19.1626 7.04008H21.2015V12.5345H19.1547L19.1626 7.04008Z" fill="black"/>
</g>
<defs>
<clipPath id="clip0_1_3">
<rect width="34" height="29" fill="white"/>
</clipPath>
</defs>
</svg>
